<!-- Generated with https://svgconverter.com/ -->
<svg xmlns="http://www.w3.org/2000/svg"
    xmlns:xlink="http://www.w3.org/1999/xlink" width="200" height="200" viewBox="0 0 200 200">
    <circle cx="100" cy="100" r="100" fill="#FA243C"/>
    <path d="M100 40c-33.1 0-60 26.9-60 60s26.9 60 60 60 60-26.9 60-60-26.9-60-60-60zm26.4 87.1c-1.7 2.8-4.7 4.5-7.9 4.7-7 0.5-14.1 0.7-21.2 0.7-7 0-14.1-0.2-21.2-0.7-3.3-0.2-6.2-1.9-7.9-4.7-2.2-3.6-3.4-9.9-3.4-26.4 0-16.5 1.2-22.7 3.4-26.4 1.7-2.8 4.7-4.5 7.9-4.7 7-0.5 14.1-0.7 21.2-0.7 7 0 14.1 0.2 21.2 0.7 3.3 0.2 6.2 1.9 7.9 4.7 2.2 3.6 3.4 9.9 3.4 26.4-0.1 16.5-1.3 22.7-3.4 26.4z" fill="#FFFFFF"/>
    <polygon points="88.3,120.4 117.6,100.7 88.3,80.9" fill="#FA243C"/>
</svg>
