<!-- Generated with https://svgconverter.com/ -->
<svg xmlns="http://www.w3.org/2000/svg"
    xmlns:xlink="http://www.w3.org/1999/xlink" width="200" height="200" viewBox="0 0 200 200">
    <circle cx="100" cy="100" r="100" fill="#1ED760"/>
    <path d="M100 40C67 40 40 67 40 100s27 60 60 60 60-27 60-60-27-60-60-60zm27.6 86.6c-1.1 1.7-3.3 2.2-5 1.2-13.7-8.3-30.9-10.2-51.2-5.6-2 0.4-3.9-0.8-4.3-2.7-0.4-2 0.8-3.9 2.7-4.3 22.2-5 41.1-2.8 56.6 6.5 1.7 1 2.2 3.3 1.2 5zm7.4-16.4c-1.3 2.1-4.1 2.8-6.2 1.4-15.6-9.6-39.5-12.4-58-6.8-2.4 0.7-4.9-0.6-5.6-3-0.7-2.4 0.6-4.9 3-5.6 21.1-6.4 47.3-3.3 65.4 7.8 2.1 1.3 2.7 4.1 1.4 6.2zm0.6-17.1c-18.8-11.2-49.8-12.2-67.8-6.7-2.9 0.9-5.9-0.8-6.8-3.7-0.9-2.9 0.8-5.9 3.7-6.8 20.6-6.2 54.8-5 76.3 7.8 2.6 1.5 3.4 4.8 1.9 7.4-1.5 2.5-4.8 3.4-7.3 1.9z" fill="#FFFFFF"/>
</svg>
