<!-- Generated with https://svgconverter.com/ -->
<svg xmlns="http://www.w3.org/2000/svg"
    xmlns:xlink="http://www.w3.org/1999/xlink" width="200" height="200" viewBox="0 0 200 200">
    <circle cx="100" cy="100" r="100" fill="#000000"/>
    <path d="M157.8 80.7c-0.3-7.3-1.5-12.3-3.3-16.6-1.8-4.7-4.2-8.7-8.1-12.7-3.9-3.9-7.9-6.3-12.7-8.1-4.4-1.7-9.3-2.9-16.6-3.3-7.4-0.3-9.7-0.4-28.4-0.4s-21 0-28.4 0.4c-7.3 0.3-12.3 1.5-16.6 3.3-4.7 1.8-8.7 4.2-12.7 8.1-3.9 3.9-6.3 7.9-8.1 12.7-1.7 4.4-2.9 9.3-3.3 16.6-0.3 7.4-0.4 9.7-0.4 28.4s0 21 0.4 28.4c0.3 7.3 1.5 12.3 3.3 16.6 1.8 4.7 4.2 8.7 8.1 12.7 3.9 3.9 7.9 6.3 12.7 8.1 4.4 1.7 9.3 2.9 16.6 3.3 7.4 0.3 9.7 0.4 28.4 0.4s21 0 28.4-0.4c7.3-0.3 12.3-1.5 16.6-3.3 4.7-1.8 8.7-4.2 12.7-8.1 3.9-3.9 6.3-7.9 8.1-12.7 1.7-4.4 2.9-9.3 3.3-16.6 0.3-7.4 0.4-9.7 0.4-28.4s0-21-0.4-28.4zM144.7 137c-0.3 6.7-1.4 10.3-2.4 12.7-1.2 3.2-2.7 5.5-5.1 7.9-2.4 2.4-4.7 3.9-7.9 5.1-2.4 0.9-6 2-12.7 2.4-7.3 0.3-9.5 0.4-28 0.4s-20.7 0-28-0.4c-6.7-0.3-10.3-1.4-12.7-2.4-3.2-1.2-5.5-2.7-7.9-5.1-2.4-2.4-3.9-4.7-5.1-7.9-0.9-2.4-2-6-2.4-12.7-0.3-7.3-0.4-9.5-0.4-28s0-20.7 0.4-28c0.3-6.7 1.4-10.3 2.4-12.7 1.2-3.2 2.7-5.5 5.1-7.9 2.4-2.4 4.7-3.9 7.9-5.1 2.4-0.9 6-2 12.7-2.4 7.3-0.3 9.5-0.4 28-0.4s20.7 0 28 0.4c6.7 0.3 10.3 1.4 12.7 2.4 3.2 1.2 5.5 2.7 7.9 5.1 2.4 2.4 3.9 4.7 5.1 7.9 0.9 2.4 2 6 2.4 12.7 0.3 7.3 0.4 9.5 0.4 28s0 20.7-0.4 28zM88.7 64.7c-19.2 0-34.9 15.7-34.9 34.9S69.4 134.5 88.7 134.5c19.2 0 34.9-15.7 34.9-34.9S108 64.7 88.7 64.7zm0 57.6c-12.5 0-22.7-10.1-22.7-22.7s10.1-22.7 22.7-22.7 22.7 10.1 22.7 22.7-10.1 22.7-22.7 22.7zm44.6-58.9c0 4.5-3.6 8.1-8.1 8.1s-8.1-3.6-8.1-8.1 3.6-8.1 8.1-8.1c4.4-0.1 8.1 3.6 8.1 8.1z" fill="#FFFFFF"/>
</svg>
